<svg width="161" height="48" viewBox="0 0 161 48" fill="none" xmlns="http://www.w3.org/2000/svg">
<path d="M35.5488 48C35.2738 48 35.0905 47.8175 34.9988 47.635L31.0571 38.692L26.9321 47.635C26.8405 47.8175 26.5655 48 26.3821 48C26.1071 48 25.9238 47.8175 25.8321 47.635L22.1655 39.5133L18.4988 47.635C18.4071 47.8175 18.1321 48 17.9488 48C17.6738 48 17.4905 47.8175 17.3988 47.635L0.0737973 10.1293C-0.109536 9.85551 0.0737973 9.39924 0.348797 9.30798C0.623797 9.12547 1.08213 9.30798 1.1738 9.58175L17.7655 45.8099L21.3405 37.8707L4.4738 0.912548C4.38213 0.730038 4.4738 0.456274 4.56546 0.273764C4.65713 0.0912548 4.84046 0 5.11546 0H38.7571C38.9405 0 39.2155 0.0912548 39.3071 0.273764C39.3988 0.456274 39.3988 0.730038 39.3071 0.912548L35.5488 9.21673H43.3405C43.5238 9.21673 43.7988 9.30798 43.8905 9.49049C43.9821 9.673 43.9821 9.94677 43.9821 10.1293L31.6988 37.1407L36.0988 47.1787C36.2821 47.5437 36.0988 47.9087 35.7321 48C35.7321 48 35.6405 48 35.5488 48ZM22.7155 37.962L26.2905 45.9011L30.2321 37.1407L26.6571 29.1103L22.7155 37.962ZM6.1238 1.27757L21.9821 36.3194L26.0155 27.3764L18.3155 10.038C18.2238 9.85551 18.2238 9.58175 18.4071 9.39924C18.4988 9.21673 18.6821 9.12547 18.9571 9.12547H34.2655L37.8405 1.18631H6.1238V1.27757ZM27.3905 27.4677L30.9655 35.5894L42.3321 10.4943H34.9988L27.3905 27.4677ZM19.8738 10.4943L26.6571 25.9163L33.5321 10.4943H19.8738Z" fill="#333333"/>
<path d="M69.7086 16.2963H73.9801L78.2517 36.0494L83.8146 8H87.7881L81.1325 40H75.6689L71.9934 20.8395L68.3179 40H62.755L56 8H59.9735L65.4371 36.1481L69.7086 16.2963Z" fill="#333333"/>
<path d="M106.265 24.4938H97.1256V39.9012H93.0527V8H97.1256V21.5309H106.265V8H110.338V40H106.265V24.4938Z" fill="#333333"/>
<path d="M116.994 40V8H121.067V40H116.994Z" fill="#333333"/>
<path d="M131.695 40V11.0617H125.238V8H142.126V11.0617H135.669V40H131.695Z" fill="#333333"/>
<path d="M146.496 40V8H160.503V11.0617H150.569V21.3333H158.615V24.3951H150.569V36.8395H160.999V39.9012H146.496V40Z" fill="#333333"/>
</svg>
