<svg width="93" height="100" viewBox="0 0 93 100" fill="none" xmlns="http://www.w3.org/2000/svg">
<path d="M89.4612 67.6166L67.4331 59.5206C67.2832 59.4456 67.2083 59.4456 67.0585 59.5206L32.8924 65.1428C33.0423 64.8429 33.1921 64.5431 33.267 64.2432C33.9414 62.1443 33.4169 59.8954 32.0682 57.5716L38.5867 53.8235H63.462C63.9116 53.8235 64.2113 53.5236 64.2113 53.0738C64.2113 52.6241 63.9116 52.3242 63.462 52.3242H38.4369C38.287 52.3242 38.2121 52.3242 38.0623 52.3992L31.319 56.2223C27.1231 49.8504 18.207 43.7785 15.8094 42.2043C16.0341 41.7545 16.1091 41.3047 16.1091 41.0798C16.2589 38.756 13.3368 32.8339 9.89025 29.6106C8.24189 28.0363 5.76935 27.7365 3.82128 28.9359L2.47262 29.7605C1.27381 30.4351 0.44963 31.6345 0.149928 32.9089C-0.149774 34.2582 0.0750026 35.6076 0.824258 36.807L2.09799 38.8309L24.5007 71.9644C25.3998 73.2387 26.5237 74.3632 27.7975 75.1878C28.1721 75.4127 28.6216 75.6375 29.0712 75.8624L36.4139 86.9569H25.9993C21.2789 86.9569 17.3828 90.8549 17.3828 95.5776V99.3257C17.3828 99.7755 17.6825 100.075 18.1321 100.075H77.6979C78.1474 100.075 78.4472 99.7755 78.4472 99.3257C78.4472 98.8759 78.1474 98.5761 77.6979 98.5761H18.8813V95.5776C18.8813 91.6795 22.1031 88.4561 25.9993 88.4561H37.7626H50.0504C50.4999 88.4561 50.7996 88.1563 50.7996 87.7065C50.7996 87.2567 50.4999 86.9569 50.0504 86.9569H38.1372L31.319 76.687C32.8175 77.0618 34.3909 77.0618 35.9644 76.762L49.6757 74.0633L59.7907 87.9314C59.9405 88.1563 60.1653 88.2313 60.3901 88.2313H80.3203C84.2164 88.2313 87.4382 91.4546 87.4382 95.3527C87.4382 95.8025 87.7379 96.1023 88.1875 96.1023C88.637 96.1023 88.9367 95.8025 88.9367 95.3527C88.9367 90.6301 85.0406 86.732 80.3203 86.732H60.8396L51.399 73.6885L67.8077 70.4651L86.2394 76.8369C86.7639 76.9869 87.2884 77.1368 87.8128 77.1368C88.5621 77.1368 89.3114 76.9869 89.9857 76.6121C91.1845 76.0124 92.0087 74.9629 92.4582 73.6885C93.2075 71.2148 91.9338 68.5161 89.4612 67.6166ZM3.37173 38.0064L2.02307 35.9824C1.49859 35.1578 1.34874 34.1833 1.57351 33.2837C1.79829 32.3092 2.3977 31.5596 3.22188 31.0348L4.57054 30.2103C5.16994 29.8354 5.76935 29.6855 6.44368 29.6855C7.34278 29.6855 8.24189 29.9854 8.91622 30.66C12.138 33.7335 14.7604 39.2058 14.6106 41.0049C14.6106 41.2298 14.5356 41.6046 14.2359 42.1293C13.9362 42.654 13.2619 43.3287 12.2129 44.0034L8.91622 46.1023L3.37173 38.0064ZM91.0346 73.2387C90.7349 74.1383 90.1355 74.813 89.3114 75.2627C88.4872 75.6376 87.5881 75.7125 86.689 75.4127L68.1074 68.9659C67.9576 68.8909 67.8826 68.8909 67.7328 68.9659L49.9005 72.4891L35.7396 75.2627C33.267 75.7125 30.7196 75.2627 28.6216 73.9134C27.4978 73.1638 26.5237 72.2642 25.7745 71.1398L9.66548 47.3767L12.9622 45.2777C13.8613 44.678 14.5356 44.0783 14.9852 43.5536C17.3828 45.1278 26.5987 51.4996 30.4199 57.5716V57.6465C30.4199 57.7215 30.4948 57.7965 30.5697 57.7965C31.8434 59.8954 32.4428 61.9944 31.8434 63.7935C31.6187 64.4681 31.244 65.0678 30.7196 65.5926L28.0222 68.2163C27.7225 68.5161 27.7225 68.9659 28.0222 69.2657C28.1721 69.4157 28.3969 69.4906 28.5467 69.4906C28.7715 69.4906 28.9213 69.4157 29.0712 69.2657L31.5437 66.792L67.0585 60.9449L88.9367 68.9659C90.66 69.6405 91.5591 71.5146 91.0346 73.2387Z" fill="#333333"/>
<path d="M62.1128 35.9073C62.2626 36.0572 62.4125 36.0572 62.5623 36.0572H62.6373C62.862 36.0572 63.0119 35.9822 63.1617 35.8323L66.8331 31.5594C69.7552 28.1112 69.3806 22.8638 65.934 19.9403L57.6173 12.8188L61.5883 8.09618L71.5534 8.2461C71.928 8.2461 72.3027 7.94625 72.3027 7.49648C72.3027 7.0467 72.003 6.74685 71.5534 6.74685L61.2137 6.59693C60.9889 6.59693 60.7641 6.67189 60.6143 6.89678L56.3435 11.8443L52.2226 8.32107L57.6922 2.09918H77.6973C78.1469 2.09918 78.4466 1.79933 78.4466 1.34955C78.4466 0.899776 78.1469 0.599926 77.6973 0.599926H57.3175C57.0928 0.599926 56.868 0.674889 56.7181 0.899776L51.1737 7.42151L44.8799 2.02421C43.2315 0.599926 41.0587 -0.0747366 38.8859 0.0751885C36.713 0.225114 34.69 1.27459 33.2664 2.92376L29.5951 7.19663C29.2954 7.49648 29.3703 8.02122 29.67 8.2461L62.1128 35.9073ZM34.3903 3.89828C35.5891 2.54895 37.1626 1.72436 38.9608 1.57444C40.759 1.42451 42.4823 2.02421 43.9059 3.14865L64.885 21.0647C67.7322 23.4635 68.0319 27.7364 65.6343 30.5849L62.4874 34.3331L31.2435 7.57144L34.3903 3.89828Z" fill="#333333"/>
<path d="M41.7344 25.7878L39.1869 28.7863C38.8872 29.0861 38.9621 29.6109 39.2618 29.8358C39.4117 29.9857 39.5615 29.9857 39.7114 29.9857C39.9361 29.9857 40.1609 29.9107 40.3108 29.6858L42.8582 26.6873C43.1579 26.3875 43.083 25.8627 42.7833 25.6379C42.4836 25.413 42.0341 25.413 41.7344 25.7878Z" fill="#333333"/>
<path d="M30.4204 19.941C30.0458 20.016 29.7461 20.3908 29.7461 20.7656C29.821 21.1404 30.1207 21.4403 30.4954 21.4403H30.5703L36.7142 20.6907C37.0888 20.6157 37.3885 20.2409 37.3885 19.8661C37.3885 19.4913 36.939 19.1914 36.5643 19.1914L30.4204 19.941Z" fill="#333333"/>
<path d="M49.6008 31.0352C49.1513 31.0352 48.8516 31.41 48.8516 31.7848L49.0763 37.1821C49.0763 37.5569 49.451 37.9317 49.8256 37.9317C50.2752 37.9317 50.5749 37.5569 50.5749 37.1821L50.3501 31.7848C50.3501 31.335 49.9755 31.0352 49.6008 31.0352Z" fill="#333333"/>
</svg>
