<svg width="100" height="101" viewBox="0 0 100 101" fill="none" xmlns="http://www.w3.org/2000/svg">
<g clip-path="url(#clip0)">
<path d="M63.2722 7.00838H58.106C57.3179 3.12458 53.9033 0.333984 49.9402 0.333984C45.9778 0.333984 42.5632 3.12458 41.7744 7.00838H36.6082C33.8466 7.00838 31.6083 9.24666 31.6083 12.0083V13.6744H23.2761C19.5945 13.6744 16.6094 16.6588 16.6094 20.3404V93.668C16.6094 97.3497 19.5945 100.334 23.2761 100.334H76.605C80.2866 100.334 83.271 97.3497 83.271 93.668V20.3404C83.271 16.6588 80.2866 13.6744 76.605 13.6744H68.2721V12.0083C68.2721 9.24666 66.0338 7.00838 63.2722 7.00838ZM34.9413 12.0083C34.9413 11.0875 35.6874 10.3414 36.6082 10.3414H43.2742C44.1942 10.3414 44.9411 9.5953 44.9411 8.67527C44.9411 5.91366 47.1793 3.67538 49.9402 3.67538C52.7018 3.67538 54.9401 5.91366 54.9401 8.67527C54.9401 9.5953 55.6862 10.3414 56.6062 10.3414H63.2722C64.193 10.3414 64.9391 11.0875 64.9391 12.0083V13.6744C64.9421 14.1222 64.8979 14.5692 64.8056 15.0079C64.1678 18.1098 61.4398 20.3366 58.2731 20.3404H41.6073C38.4345 20.3343 35.7026 18.0975 35.0702 14.9881C34.9809 14.5555 34.9375 14.1153 34.9413 13.6744V12.0083ZM76.605 17.0074C78.4458 17.0074 79.938 18.4996 79.938 20.3404V93.668C79.938 95.5088 78.4458 97.001 76.605 97.001H23.2761C21.4353 97.001 19.9431 95.5088 19.9431 93.668V20.3404C19.9431 18.4996 21.4353 17.0074 23.2761 17.0074H32.1766C32.1987 17.0692 32.2315 17.1226 32.2552 17.1829C32.3338 17.3911 32.4314 17.5879 32.5237 17.7878C32.6588 18.0861 32.7968 18.3806 32.9586 18.6605C33.073 18.8589 33.2019 19.0443 33.3286 19.2327C33.5048 19.4944 33.6848 19.7476 33.8847 19.9887C34.0296 20.1672 34.183 20.3358 34.3401 20.5021C34.553 20.7272 34.775 20.9423 35.0069 21.1475C35.1732 21.2986 35.3502 21.4443 35.5295 21.5839C35.7797 21.7754 36.0398 21.9485 36.3084 22.1171C36.4968 22.2354 36.6814 22.3552 36.8782 22.4604C37.1681 22.613 37.4656 22.7511 37.7693 22.8739C37.9661 22.9555 38.156 23.0402 38.3582 23.1157C38.7038 23.2302 39.0562 23.3248 39.4125 23.4003C39.591 23.4407 39.7611 23.4972 39.9412 23.5269C40.4912 23.6223 41.0489 23.6711 41.6073 23.6734H58.2731C58.8315 23.6719 59.3892 23.6223 59.9392 23.5269C60.123 23.4972 60.2947 23.4384 60.4747 23.3988C60.8287 23.3232 61.1781 23.2294 61.5229 23.1173C61.7297 23.0456 61.9227 22.9502 62.1225 22.8686C62.4193 22.7435 62.7145 22.6168 62.9976 22.4658C63.2028 22.3552 63.3958 22.2308 63.5926 22.1057C63.8474 21.9386 64.0923 21.7723 64.3372 21.5953C64.5309 21.4473 64.714 21.2925 64.8956 21.1307C65.1123 20.9393 65.3205 20.7386 65.5204 20.5288C65.6875 20.3473 65.8538 20.1626 66.0208 19.9674C66.1871 19.7721 66.3641 19.5173 66.5205 19.2823C66.6639 19.0725 66.8074 18.8627 66.9355 18.6407C67.0805 18.3874 67.2041 18.1227 67.3269 17.8572C67.4322 17.6307 67.542 17.411 67.6305 17.1745C67.6519 17.1173 67.6839 17.0661 67.7037 17.0074H76.605Z" fill="#424242"/>
<path d="M51.6065 8.6747C51.6065 9.59473 50.8604 10.3408 49.9396 10.3408C49.0195 10.3408 48.2734 9.59473 48.2734 8.6747C48.2734 7.75391 49.0195 7.00781 49.9396 7.00781C50.8604 7.00781 51.6065 7.75391 51.6065 8.6747Z" fill="#424242"/>
<path d="M44.9403 17.0068H54.9393C55.8594 17.0068 56.6055 16.2607 56.6055 15.3407C56.6055 14.4199 55.8594 13.6738 54.9393 13.6738H44.9403C44.0195 13.6738 43.2734 14.4199 43.2734 15.3407C43.2734 16.2607 44.0195 17.0068 44.9403 17.0068Z" fill="#424242"/>
<path d="M23.2754 30.3396V90.3345C23.2754 92.1753 24.7676 93.6675 26.6084 93.6675H73.2712C75.112 93.6675 76.6042 92.1753 76.6042 90.3345V30.3396C76.6042 28.4988 75.112 27.0059 73.2712 27.0059H26.6084C24.7676 27.0059 23.2754 28.4988 23.2754 30.3396ZM73.2712 90.3345H26.6084V30.3396H73.2712V90.3345Z" fill="#424242"/>
<path d="M41.2006 54.6318C37.413 58.26 37.8295 64.0548 39.4827 68.2697C39.9572 69.3988 40.5286 70.4843 41.1907 71.5142C41.5043 72.0307 41.8193 72.5487 42.1077 73.0888C42.9682 74.6832 43.5152 76.4279 43.7189 78.2283C43.7975 78.9698 43.8143 79.7281 43.831 80.4719C43.7967 82.0785 43.9912 83.6813 44.4093 85.233C44.7778 86.6146 45.726 87.7688 47.0092 88.3997C48.052 88.8506 49.2421 88.8124 50.2537 88.2944C51.9831 87.3416 53.1946 85.664 53.557 83.7233C53.8011 82.5584 53.9132 81.3698 53.8896 80.1797C53.9002 79.6297 53.9086 79.0804 53.9529 78.5319C54.12 76.6323 54.6196 76.2402 54.9385 76.1456C55.2597 76.2402 55.7632 76.6323 55.9234 78.5319C55.9684 79.0804 55.9768 79.6297 55.9867 80.1797C55.9631 81.3698 56.0752 82.5584 56.3201 83.7233C56.6817 85.664 57.8931 87.3416 59.6226 88.2944C60.1718 88.5637 60.7745 88.7064 61.3863 88.7125C61.8959 88.7117 62.401 88.6049 62.8679 88.3997C64.1502 87.7688 65.0985 86.6138 65.467 85.233C65.885 83.6805 66.0796 82.077 66.0452 80.4696C66.062 79.7182 66.0788 78.9698 66.1574 78.2268C66.3603 76.4264 66.908 74.6809 67.7701 73.0873C68.0569 72.5471 68.372 72.0291 68.6855 71.5127C69.3485 70.482 69.9199 69.3957 70.3936 68.2659C72.0468 64.0533 72.4633 58.2585 68.6772 54.6318C64.8094 51.2858 59.1801 50.944 54.9362 53.7987C50.6939 50.9471 45.0677 51.2881 41.2006 54.6318ZM53.8163 57.1538C53.8346 57.1706 53.8583 57.1752 53.8766 57.1904C53.8949 57.2049 53.9002 57.2255 53.9186 57.2385C55.7342 58.6353 57.1585 60.4762 58.0549 62.5847C58.2631 63.2942 58.9146 63.7817 59.6546 63.7817C59.8133 63.7817 59.9704 63.7588 60.123 63.713C60.5472 63.5887 60.905 63.3011 61.1171 62.9135C61.3291 62.5252 61.3787 62.069 61.2544 61.6449C60.5014 59.5386 59.2579 57.6421 57.6261 56.1117C60.4602 54.6188 63.9153 54.985 66.374 57.0386C68.9739 59.5302 68.4956 63.99 67.2956 67.0514C66.8882 68.0027 66.4 68.9174 65.837 69.7855C65.4937 70.3562 65.1489 70.926 64.8376 71.5188C63.7726 73.4893 63.0982 75.6459 62.8511 77.872C62.761 78.7051 62.7389 79.5481 62.7191 80.3933C62.7519 81.691 62.6077 82.9871 62.2911 84.2466C62.1904 84.6944 61.9196 85.0865 61.5359 85.3398C61.4825 85.3612 61.3574 85.4176 61.0614 85.278C60.2527 84.744 59.7073 83.8926 59.5608 82.9345C59.38 82.0068 59.2991 81.0624 59.3197 80.1164C59.3098 79.4931 59.2961 78.8683 59.2442 78.2466C58.8963 74.0805 56.8167 72.9805 55.13 72.7943C55.0667 72.7859 55.0034 72.7821 54.94 72.7821C54.8767 72.7737 54.8119 72.7775 54.7501 72.7943C53.0634 72.9805 50.9838 74.079 50.6351 78.2466C50.5833 78.8683 50.5703 79.4931 50.5604 80.1164C50.581 81.0624 50.4993 82.0068 50.3185 82.9345C50.1721 83.8926 49.6274 84.744 48.8187 85.278C48.5235 85.4199 48.3969 85.3627 48.3435 85.3398C47.9597 85.0865 47.6889 84.6936 47.589 84.2443C47.2716 82.9863 47.1274 81.691 47.1602 80.3933C47.1404 79.5481 47.119 78.7051 47.029 77.872C46.7811 75.6467 46.1075 73.4893 45.044 71.5188C44.7274 70.926 44.3773 70.3523 44.0439 69.7855C43.4816 68.9174 42.9934 68.0035 42.586 67.0529C41.386 63.99 40.9077 59.5302 43.5091 57.0386C46.5095 54.5486 50.8724 54.5974 53.8163 57.1538Z" fill="#424242"/>
<path d="M46.6058 65.2111C47.5266 65.2111 48.2726 64.465 48.2726 63.5442C48.2292 63.088 48.3939 62.6356 48.7197 62.313C49.0454 61.9903 49.4994 61.8308 49.9556 61.8781C50.5506 61.8751 51.0999 61.5547 51.3943 61.0374C51.6896 60.5202 51.6865 59.8855 51.3859 59.3713C51.0861 58.8571 50.5346 58.5421 49.9388 58.5451C48.6014 58.5054 47.3068 59.0196 46.3609 59.9663C45.4141 60.9123 44.9 62.2069 44.9396 63.5442C44.9396 64.465 45.6857 65.2111 46.6058 65.2111Z" fill="#424242"/>
<path d="M33.2733 47.0048C33.2733 49.7656 35.5116 52.0039 38.2724 52.0039C41.0341 52.0039 43.2723 49.7656 43.2723 47.0048C46.0332 47.0048 48.2722 44.7665 48.2722 42.0049C48.2722 39.244 46.0332 37.0057 43.2723 37.0057C43.2723 34.2441 41.0341 32.0059 38.2724 32.0059C35.5116 32.0059 33.2733 34.2441 33.2733 37.0057C30.5117 37.0057 28.2734 39.244 28.2734 42.0049C28.2734 44.7665 30.5117 47.0048 33.2733 47.0048ZM33.2733 40.3387H34.9394C35.8602 40.3387 36.6063 39.5927 36.6063 38.6719V37.0057C36.6063 36.085 37.3524 35.3389 38.2724 35.3389C39.1932 35.3389 39.9393 36.085 39.9393 37.0057V38.6719C39.9393 39.5927 40.6854 40.3387 41.6054 40.3387H43.2723C44.1924 40.3387 44.9392 41.0848 44.9392 42.0049C44.9392 42.9257 44.1924 43.6718 43.2723 43.6718H41.6054C40.6854 43.6718 39.9393 44.4178 39.9393 45.3379V47.0048C39.9393 47.9248 39.1932 48.6709 38.2724 48.6709C37.3524 48.6709 36.6063 47.9248 36.6063 47.0048V45.3379C36.6063 44.4178 35.8602 43.6718 34.9394 43.6718H33.2733C32.3525 43.6718 31.6064 42.9257 31.6064 42.0049C31.6064 41.0848 32.3525 40.3387 33.2733 40.3387Z" fill="#424242"/>
</g>
<defs>
<clipPath id="clip0">
<rect width="100" height="100" fill="white" transform="translate(0 0.333984)"/>
</clipPath>
</defs>
</svg>
