<svg width="106" height="117" viewBox="0 0 106 117" fill="none" xmlns="http://www.w3.org/2000/svg">
<g clip-path="url(#clip0)">
<path d="M54.5992 64.9004C54.5992 65.3004 54.3992 65.7004 54.0992 66.0004C53.7992 66.3004 53.3992 66.4004 52.9992 66.4004C52.2992 66.3004 51.6992 65.7004 51.6992 64.9004C51.6992 64.1004 52.3992 63.4004 53.1992 63.4004C53.9992 63.4004 54.5992 64.1004 54.5992 64.9004Z" fill="#333333"/>
<path d="M52.8 55.8008C38.3 55.8008 26.5 67.6008 26.5 82.1008C26.5 96.6008 38.3 108.401 52.8 108.401C67.3 108.401 79.1 96.6008 79.1 82.1008C79.1 67.6008 67.3 55.8008 52.8 55.8008ZM52.8 106.201C39.5 106.201 28.7 95.4008 28.7 82.1008C28.7 68.8008 39.5 58.0008 52.8 58.0008C66.1 58.0008 76.9 68.8008 76.9 82.1008C76.9 95.4008 66.1 106.201 52.8 106.201Z" fill="#333333"/>
<path d="M70.7008 82.1008C70.7008 82.7008 70.2008 83.2008 69.6008 83.2008C69.0008 83.2008 68.5008 82.7008 68.5008 82.1008C68.5008 76.4008 65.4008 71.1008 60.4008 68.3008C60.2008 68.2008 60.0008 67.9008 59.9008 67.6008C59.8008 67.3008 59.9008 67.0008 60.0008 66.8008C60.1008 66.5008 60.4008 66.3008 60.7008 66.3008C60.8008 66.3008 60.9008 66.3008 61.0008 66.3008C61.2008 66.3008 61.4008 66.3008 61.5008 66.4008C67.2008 69.6008 70.7008 75.6008 70.7008 82.1008Z" fill="#333333"/>
<path d="M100.3 51.6004H97.2V44.3004C97.2 43.7004 96.7 43.2004 96.1 43.2004H87.7C87.1 43.2004 86.6 43.7004 86.6 44.3004V51.6004H69.4L69.2 51.5004C67.2 50.5004 65.2 49.6004 63.1 48.9004L62.4 48.7004V41.2004H69.7C72.6 41.2004 75 38.8004 75 35.9004V23.2004C75 20.3004 72.6 17.9004 69.7 17.9004H36C33.1 17.9004 30.7 20.3004 30.7 23.2004V35.8004C30.7 38.7004 33.1 41.1004 36 41.1004H43.3V48.6004L42.6 48.8004C40.5 49.5004 38.4 50.3004 36.5 51.4004L36.3 51.5004H19V44.2004C19 43.6004 18.5 43.1004 17.9 43.1004H9.5C8.9 43.1004 8.4 43.6004 8.4 44.2004V51.5004H5.3C2.4 51.5004 0 53.9004 0 56.8004V107.2C0 110.1 2.4 112.5 5.3 112.5H36.2L36.4 112.6C41.4 115.3 47.1 116.7 52.7 116.7C58.4 116.7 64 115.3 69 112.6L69.2 112.5H100.1C103 112.5 105.4 110.1 105.4 107.2V56.9004C105.6 53.9004 103.2 51.6004 100.3 51.6004ZM88.8 45.4004H95V51.6004H88.8V45.4004ZM36 38.9004C34.3 38.9004 32.9 37.5004 32.9 35.8004V23.2004C32.9 21.5004 34.3 20.1004 36 20.1004H69.6C71.3 20.1004 72.7 21.5004 72.7 23.2004V35.8004C72.7 37.5004 71.3 38.9004 69.6 38.9004H36ZM60.1 41.1004V48.1004L58.9 47.9004C54.9 47.2004 50.7 47.2004 46.6 47.9004L45.4 48.1004V41.1004H60.1ZM10.6 45.4004H16.8V51.6004H10.6V45.4004ZM2.2 56.9004C2.2 55.2004 3.6 53.8004 5.3 53.8004H32.5L30.4 55.6004C27.6 57.9004 25.3 60.7004 23.3 63.8004L23 64.2004H2.2V56.9004ZM2.2 66.3004H21.8L21.2 67.7004C19.2 72.2004 18.1 77.1004 18.1 82.0004C18.1 86.9004 19.2 91.8004 21.2 96.3004L21.8 97.7004H2.2V66.3004ZM5.3 110.4C3.6 110.4 2.2 109 2.2 107.3V100H23L23.3 100.5C25.2 103.6 27.6 106.3 30.4 108.7L32.5 110.5H5.3V110.4ZM52.8 114.6C34.9 114.6 20.3 100 20.3 82.1004C20.3 64.2004 34.9 49.6004 52.8 49.6004C70.7 49.6004 85.3 64.2004 85.3 82.1004C85.3 100 70.7 114.6 52.8 114.6ZM103.4 107.3C103.4 109 102 110.4 100.3 110.4H73.1L75.2 108.6C78 106.3 80.4 103.5 82.3 100.4L82.6 99.9004H103.4V107.3ZM103.4 97.8004H83.8L84.4 96.4004C86.4 91.9004 87.5 87.0004 87.5 82.1004C87.5 77.2004 86.4 72.3004 84.4 67.8004L83.8 66.4004H103.4V97.8004ZM103.4 64.2004H82.5L82.2 63.7004C80.3 60.6004 77.9 57.9004 75.1 55.5004L73 53.7004H100.2C101.9 53.7004 103.3 55.1004 103.3 56.8004V64.2004H103.4Z" fill="#333333"/>
<path d="M65.4008 25.3008C64.2008 25.3008 63.3008 26.3008 63.3008 27.4008V31.6008C63.3008 32.8008 64.2008 33.7008 65.4008 33.7008C66.6008 33.7008 67.5008 32.8008 67.5008 31.6008V27.4008C67.5008 26.3008 66.6008 25.3008 65.4008 25.3008ZM66.5008 31.6008C66.5008 32.2008 66.0008 32.7008 65.4008 32.7008C64.8008 32.7008 64.3008 32.2008 64.3008 31.6008V27.4008C64.3008 26.8008 64.8008 26.3008 65.4008 26.3008C66.0008 26.3008 66.5008 26.8008 66.5008 27.4008V31.6008Z" fill="#333333"/>
<path d="M65.4008 24.3008C63.7008 24.3008 62.3008 25.7008 62.3008 27.4008V31.6008C62.3008 33.3008 63.7008 34.7008 65.4008 34.7008C67.1008 34.7008 68.5008 33.3008 68.5008 31.6008V27.4008C68.5008 25.7008 67.1008 24.3008 65.4008 24.3008ZM66.5008 31.6008C66.5008 32.2008 66.0008 32.7008 65.4008 32.7008C64.8008 32.7008 64.3008 32.2008 64.3008 31.6008V27.4008C64.3008 26.8008 64.8008 26.3008 65.4008 26.3008C66.0008 26.3008 66.5008 26.8008 66.5008 27.4008V31.6008Z" fill="#333333"/>
<path d="M96.4996 76.3996C96.3996 76.3996 96.1996 76.3996 96.0996 76.3996C94.0996 76.1996 92.5996 74.4996 92.5996 72.4996C92.5996 70.3996 94.2996 68.5996 96.4996 68.5996C98.6996 68.5996 100.4 70.2996 100.4 72.4996C100.4 73.5996 99.8996 74.5996 99.0996 75.3996C98.3996 75.9996 97.4996 76.3996 96.4996 76.3996ZM96.4996 70.5996C95.4996 70.5996 94.5996 71.3996 94.5996 72.4996C94.5996 73.4996 95.2996 74.2996 96.2996 74.3996C96.7996 74.3996 97.3996 74.2996 97.7996 73.8996C98.1996 73.4996 98.3996 72.9996 98.3996 72.4996C98.3996 71.4996 97.4996 70.5996 96.4996 70.5996Z" fill="#333333"/>
<path d="M52.7996 11.4996C52.0996 11.4996 51.5996 10.8996 51.5996 10.2996V1.29961C51.5996 0.599609 52.1996 0.0996094 52.7996 0.0996094C53.3996 0.0996094 53.9996 0.599609 53.9996 1.19961V10.1996C53.9996 10.8996 53.4996 11.4996 52.7996 11.4996Z" fill="#333333"/>
<path d="M44.9992 14.5004C44.6992 14.5004 44.3992 14.4004 44.0992 14.1004L37.6992 7.70039C37.1992 7.20039 37.1992 6.40039 37.6992 5.90039C38.1992 5.40039 38.9992 5.40039 39.4992 5.90039L45.8992 12.3004C46.3992 12.8004 46.3992 13.6004 45.8992 14.1004C45.6992 14.4004 45.3992 14.5004 44.9992 14.5004Z" fill="#333333"/>
<path d="M60.4996 14.5C60.1996 14.5 59.8996 14.4 59.5996 14.1C59.0996 13.6 59.0996 12.8 59.5996 12.3L65.9996 6C66.4996 5.5 67.2996 5.5 67.7996 6C68.2996 6.5 68.2996 7.3 67.7996 7.8L61.3996 14.2C61.1996 14.4 60.7996 14.5 60.4996 14.5Z" fill="#333333"/>
</g>
<defs>
<clipPath id="clip0">
<rect width="105.6" height="116.8" fill="white"/>
</clipPath>
</defs>
</svg>
