<svg width="155" height="127" viewBox="0 0 155 127" fill="none" xmlns="http://www.w3.org/2000/svg">
<g clip-path="url(#clip0)">
<path d="M154.87 52.1309C154.87 52.0002 154.74 51.8696 154.61 51.8696C154.61 51.8696 154.61 51.8696 154.479 51.7389C143.417 42.8541 131.704 35.6679 120.772 30.9642C112.573 27.4364 104.635 25.4766 99.5592 25.4766C92.5315 25.4766 81.3392 30.3109 77.4349 32.0095C73.5306 30.3109 62.3384 25.4766 55.3107 25.4766C50.2351 25.4766 42.1662 27.5671 33.9673 30.9642C22.9051 35.6679 11.3224 42.8541 0.260285 51.7389C0.130143 51.8696 0.130143 52.0002 0 52.1309C0 52.1309 0 52.2615 0 52.3922C0 52.5229 0 52.6535 0 52.9148V53.0455V53.1762C0.650714 54.2214 1.30143 55.136 1.95214 56.1813C7.02771 63.8901 12.1033 71.8603 28.6314 86.6247C46.7212 102.826 75.7431 101.52 77.3048 101.389C77.5651 101.389 78.6062 101.389 80.1679 101.389C88.1066 101.389 110.882 100.083 125.978 86.4941C142.636 71.8603 147.712 63.8901 152.788 56.1813C153.438 55.136 154.089 54.2214 154.74 53.1762C154.74 53.1762 154.74 53.1762 154.74 53.0455V52.9148C154.74 52.7842 154.74 52.6535 154.74 52.5229C154.87 52.3922 154.87 52.2615 154.87 52.1309ZM55.4408 27.4364C62.3384 27.4364 73.7909 32.4015 77.1746 33.9694C77.4349 34.1 77.6952 34.1 77.9555 33.9694C80.2981 32.9241 92.5315 27.4364 99.6893 27.4364C106.847 27.4364 126.499 32.4015 150.575 50.955C148.493 50.563 146.28 50.3017 143.938 49.9097C142.636 49.779 141.465 49.5177 140.164 49.3871L138.732 49.2564C135.999 48.8644 133.396 48.6031 130.924 48.3418C130.533 48.3418 130.013 48.2111 129.622 48.2111C126.238 47.8192 122.855 47.5578 119.601 47.4272C118.17 47.2965 116.738 47.2965 115.437 47.2965C104.114 46.9046 96.5659 47.6885 90.0588 48.4725C85.6339 48.9951 81.8598 49.3871 77.5651 49.3871C73.2704 49.3871 69.4962 48.9951 65.0714 48.4725C58.4341 47.8192 51.016 46.9046 39.6935 47.2965C38.3921 47.2965 36.9605 47.4272 35.529 47.4272C32.2754 47.5578 28.8917 47.8192 25.508 48.2111C25.1175 48.2111 24.597 48.3418 24.2065 48.3418C21.7338 48.6031 19.131 48.8644 16.398 49.2564L14.9664 49.3871C13.7951 49.5177 12.4937 49.779 11.1923 49.9097C8.84971 50.3017 6.63728 50.563 4.555 50.955C28.6314 32.4015 48.1528 27.4364 55.4408 27.4364ZM63.1192 70.6844V70.4231C63.1192 69.9004 62.7288 69.3778 62.0781 69.3778C61.4274 69.3778 61.1671 69.9004 61.1671 70.4231V70.5537C61.1671 71.991 61.1671 73.1669 61.0369 74.2122C46.2007 72.6443 26.419 67.9406 8.06885 54.7441C7.67842 54.4827 7.28799 54.2214 7.15785 54.0908C6.50714 53.5681 5.72628 53.1762 5.07557 52.9148C7.02771 52.6535 9.24013 52.2615 11.4526 52.0002C11.9731 51.8696 12.4937 51.8696 12.8841 51.7389C12.8841 51.7389 12.8841 51.7389 13.0143 51.8696C13.5348 52.3922 13.9253 52.6535 14.4458 52.6535C15.0966 52.6535 15.6171 52.3922 16.1377 52.1309C16.2678 52.3922 16.398 52.5229 16.398 52.6535C16.6583 53.0455 16.9186 53.5681 17.1788 53.9601C18.3501 55.7893 18.7406 56.5733 19.5214 56.5733C20.953 56.5733 23.2955 55.2667 24.8573 54.0908C25.508 55.92 26.8094 58.6638 28.8917 59.1864C31.6247 59.9704 34.2275 59.5784 34.4878 59.5784C35.0084 59.5784 35.7893 59.0558 36.7003 58.4025C36.9605 59.8397 37.6113 60.493 38.5223 61.0157C39.3031 61.4076 45.6801 63.4982 49.5844 63.4982C50.8858 63.4982 51.7968 63.2369 52.5777 62.8449C52.838 64.2821 53.3585 65.9807 54.5298 66.3727C56.8724 67.026 67.8044 69.7698 75.6129 68.9858C76.3938 68.8552 77.0445 68.5939 77.4349 68.0712C77.8254 68.5939 78.4761 68.8552 79.2569 68.9858C87.1956 69.7698 98.1276 67.1566 100.34 66.3727C101.511 65.9807 102.032 64.2821 102.292 62.8449C102.943 63.2369 103.984 63.4982 105.285 63.4982C109.19 63.4982 115.567 61.4076 116.348 61.0157C117.259 60.493 117.909 59.8397 118.17 58.4025C118.95 59.0558 119.861 59.4478 120.382 59.5784C120.642 59.5784 123.245 59.9704 125.978 59.1864C127.93 58.6638 129.232 56.0506 130.013 54.0908C131.574 55.2667 133.917 56.5733 135.348 56.5733C136.129 56.5733 136.52 55.92 137.691 53.9601C137.951 53.4375 138.212 53.0455 138.472 52.6535C138.602 52.5229 138.732 52.2615 138.732 52.1309C139.253 52.3922 139.773 52.6535 140.424 52.6535C140.945 52.6535 141.335 52.3922 141.856 51.8696C141.856 51.8696 141.856 51.8696 141.986 51.7389C142.506 51.8696 143.027 51.8696 143.417 52.0002C145.76 52.3922 147.842 52.6535 149.794 52.9148C149.144 53.1762 148.493 53.5681 147.712 54.0908C147.452 54.2214 147.191 54.4827 146.801 54.7441C126.238 69.5085 103.854 73.6895 88.6272 74.6041C82.3803 74.6041 80.8186 74.6041 79.5172 74.6041C78.8665 74.6041 78.3459 74.6041 77.4349 74.6041C76.5239 74.6041 76.0034 74.6041 75.3526 74.6041C74.1814 74.6041 72.4895 74.6041 66.7632 74.6041C66.6331 74.6041 66.5029 74.6041 66.3728 74.6041C65.3317 74.6041 64.2905 74.4735 63.2494 74.3428C63.1192 73.2976 63.1192 72.1216 63.1192 70.6844ZM17.8296 51.0856C20.1721 50.8243 22.2544 50.563 24.3367 50.3017H24.4668V52.0002C23.2955 52.9148 21.0831 54.2214 19.9118 54.4827C19.6516 54.0908 19.2611 53.4375 18.8707 52.9148C18.6104 52.3922 18.22 51.8696 17.9597 51.4776C17.9597 51.4776 17.8296 51.2163 17.8296 51.0856ZM26.419 52.2615V50.171C29.5424 49.9097 32.5357 49.6484 35.529 49.5177C35.9194 49.5177 36.3098 49.5177 36.5701 49.5177V56.0506C35.7893 56.9653 34.4878 57.7492 34.3577 57.7492C34.2275 57.7492 31.885 58.1412 29.4123 57.4879C28.3711 57.0959 27.1998 54.6134 26.419 52.2615ZM38.6524 56.312V49.2564C39.0428 49.2564 39.3031 49.2564 39.6935 49.2564C44.639 49.1257 48.8035 49.1257 52.5777 49.3871V60.3624C52.5777 60.493 52.1872 61.5383 49.7145 61.5383C46.2007 61.5383 40.2141 59.5784 39.6935 59.3171C39.173 59.0558 38.6524 58.7945 38.6524 56.312ZM54.3997 61.669V49.5177C58.3039 49.779 61.5575 50.171 64.8111 50.4323C68.7154 50.8243 72.4895 51.2163 76.5239 51.3469V65.7194C76.5239 65.7194 76.3938 67.026 75.4828 67.1566C67.8044 67.9406 57.2628 65.3274 55.1805 64.6741C54.9202 64.4128 54.5298 62.8449 54.3997 61.669ZM78.4761 65.7194V52.9148V51.3469C82.5105 51.3469 86.2846 50.8243 90.1889 50.4323C93.3123 50.0403 96.6961 49.779 100.6 49.5177V61.669C100.47 62.9755 100.21 64.4128 99.9496 64.6741C97.6071 65.3274 87.0655 67.9406 79.5172 67.1566C78.6062 67.026 78.4761 65.7194 78.4761 65.7194ZM102.422 60.493V49.3871C106.196 49.2564 110.361 49.1257 115.306 49.2564C115.697 49.2564 115.957 49.2564 116.348 49.2564V56.1813C116.348 58.6638 115.827 58.9251 115.437 59.1864C114.916 59.4478 108.929 61.4076 105.416 61.4076C102.813 61.5383 102.422 60.493 102.422 60.493ZM118.3 55.92V49.3871C118.69 49.3871 119.081 49.3871 119.341 49.3871C122.334 49.5177 125.327 49.779 128.451 50.0404V52.1309C127.8 54.4827 126.499 56.9653 125.327 57.3572C122.855 58.0105 120.512 57.6185 120.512 57.6185C120.382 57.6185 119.081 56.9653 118.3 55.92ZM130.403 50.3017H130.533C132.615 50.563 134.828 50.8243 137.04 51.0856C136.91 51.3469 136.91 51.4776 136.78 51.6083C136.52 52.0002 136.259 52.5229 135.869 53.0455C135.609 53.5681 135.088 54.2214 134.828 54.6134C133.657 54.3521 131.444 53.0455 130.273 52.1309L130.403 50.3017ZM151.226 55.0054C146.28 62.5836 141.205 70.5537 124.937 85.0568C106.977 101.128 77.9555 99.4293 77.6952 99.2986H77.5651C77.3048 99.2986 48.283 101.128 30.3233 85.0568C13.9253 70.5537 8.71956 62.7142 3.77414 55.0054C3.644 54.7441 3.38371 54.4827 3.25357 54.0908C4.03442 54.3521 5.07557 54.8747 6.11671 55.528C6.37699 55.6587 6.63728 55.92 7.02771 56.1813C25.6381 69.6391 45.8102 74.4735 60.9068 76.0414C60.2561 79.3078 58.4341 80.6144 53.0982 80.6144C52.5777 80.6144 52.0571 81.0064 52.0571 81.6597C52.0571 82.313 52.4475 82.705 53.0982 82.705C60.7767 82.705 61.1671 85.0568 61.1671 93.027C61.1671 93.5496 61.5575 94.0723 62.2082 94.0723C62.8589 94.0723 63.2494 93.6803 63.2494 93.027C63.2494 85.0568 63.6398 82.705 71.3182 82.705C71.8388 82.705 72.3594 82.313 72.3594 81.6597C72.3594 81.0064 71.9689 80.6144 71.3182 80.6144C66.3728 80.6144 64.9412 79.3078 64.2905 78.1319C64.0302 77.6093 63.7699 76.956 63.6398 76.3027C64.6809 76.4334 65.5919 76.4334 66.5029 76.564C72.7498 76.564 74.3115 76.564 75.6129 76.564C76.2636 76.564 76.7842 76.564 77.8254 76.564C78.8665 76.564 79.3871 76.564 80.0378 76.564C81.2091 76.564 82.9009 76.564 89.1478 76.564C104.635 75.6494 127.41 71.4683 148.363 56.312C148.753 56.0506 149.013 55.7893 149.274 55.6587C150.315 55.0054 151.226 54.4827 152.137 54.2214C151.486 54.4827 151.356 54.7441 151.226 55.0054ZM62.4685 79.3078C63.1192 80.3531 64.0302 81.1371 65.2015 81.6597C63.7699 82.313 62.7288 83.3583 62.2082 84.6648C61.6877 83.3583 60.6465 82.313 59.2149 81.6597C60.6465 81.0064 61.5575 79.9611 62.2082 78.6546C62.2082 78.9159 62.3384 79.0465 62.4685 79.3078Z" fill="#424242"/>
<path d="M96.3048 16.2012C100.6 16.2012 101.38 16.5932 101.38 21.2969C101.38 21.8195 101.771 22.3421 102.422 22.3421C103.072 22.3421 103.463 21.9502 103.463 21.2969C103.463 16.4625 104.764 16.2012 108.538 16.2012C109.059 16.2012 109.579 15.8092 109.579 15.1559C109.579 14.5026 109.189 14.1106 108.538 14.1106C104.894 14.1106 103.463 13.3267 103.463 8.36167C103.463 7.83904 103.072 7.31641 102.422 7.31641C101.771 7.31641 101.38 7.83904 101.38 8.49233C101.38 13.196 100.469 14.2413 96.3048 14.2413C95.7842 14.2413 95.2637 14.6333 95.2637 15.2866C95.2637 15.9399 95.7842 16.2012 96.3048 16.2012ZM102.422 13.588C102.812 14.1106 103.202 14.6333 103.723 15.0253C103.202 15.2866 102.812 15.6785 102.422 16.3318C102.161 15.8092 101.641 15.4172 101.12 15.1559C101.641 14.6333 102.031 14.2413 102.422 13.588Z" fill="#424242"/>
<path d="M105.677 108.969C103.985 108.969 102.684 110.275 102.684 111.974C102.684 113.672 103.985 114.979 105.677 114.979C107.369 114.979 108.67 113.672 108.67 111.974C108.54 110.275 107.239 108.969 105.677 108.969ZM105.677 112.889C105.156 112.889 104.636 112.497 104.636 111.843C104.636 111.321 105.156 110.798 105.677 110.798C106.197 110.798 106.718 111.19 106.718 111.843C106.588 112.497 106.197 112.889 105.677 112.889Z" fill="#424242"/>
<path d="M45.029 119.031C43.207 119.031 41.7754 120.468 41.7754 122.298C41.7754 124.127 43.207 125.564 45.029 125.564C46.851 125.564 48.2825 124.127 48.2825 122.298C48.1524 120.468 46.7208 119.031 45.029 119.031ZM45.029 123.474C44.3782 123.474 43.7275 122.951 43.7275 122.167C43.7275 121.514 44.2481 120.86 45.029 120.86C45.6797 120.86 46.3304 121.383 46.3304 122.167C46.2002 122.951 45.6797 123.474 45.029 123.474Z" fill="#424242"/>
<path d="M49.7154 5.48765C51.2771 5.48765 52.4484 4.31173 52.4484 2.74383C52.4484 1.17593 51.2771 0 49.7154 0C48.1537 0 46.9824 1.17593 46.9824 2.74383C46.9824 4.31173 48.2839 5.48765 49.7154 5.48765ZM49.7154 1.95988C50.1059 1.95988 50.4963 2.35185 50.4963 2.74383C50.4963 3.1358 50.1059 3.52778 49.7154 3.52778C49.325 3.52778 48.9346 3.1358 48.9346 2.74383C48.9346 2.35185 49.325 1.95988 49.7154 1.95988Z" fill="#424242"/>
<path d="M87.5859 122.688H86.4146V121.381C86.4146 120.859 86.0241 120.336 85.3734 120.336C84.7227 120.336 84.3323 120.728 84.3323 121.381V122.688H83.2911C82.7706 122.688 82.25 123.08 82.25 123.733C82.25 124.386 82.6404 124.778 83.2911 124.778H84.4624V126.085C84.4624 126.608 84.8528 127.13 85.5036 127.13C86.1543 127.13 86.5447 126.738 86.5447 126.085V124.778H87.716C88.2366 124.778 88.7571 124.386 88.7571 123.733C88.7571 123.08 88.1064 122.688 87.5859 122.688Z" fill="#424242"/>
<path d="M67.2844 111.973H66.1131V110.666C66.1131 110.144 65.7226 109.621 65.0719 109.621C64.4212 109.621 64.0308 110.013 64.0308 110.666V111.973H62.8595C62.3389 111.973 61.8184 112.365 61.8184 113.018C61.8184 113.672 62.2088 114.063 62.8595 114.063H64.0308V115.37C64.0308 115.893 64.4212 116.415 65.0719 116.415C65.7226 116.415 66.1131 116.023 66.1131 115.37V114.063H67.2844C67.8049 114.063 68.3255 113.672 68.3255 113.018C68.3255 112.365 67.8049 111.973 67.2844 111.973Z" fill="#424242"/>
<path d="M23.9454 16.7255H26.6784V19.208C26.6784 19.7307 27.0689 20.2533 27.7196 20.2533C28.3703 20.2533 28.7607 19.8613 28.7607 19.208V16.7255H31.4937C32.0143 16.7255 32.5349 16.3336 32.5349 15.6803C32.5349 15.027 32.1444 14.635 31.4937 14.635H28.6306V12.0218C28.6306 11.4992 28.2401 10.9766 27.5894 10.9766C26.9387 10.9766 26.6784 11.7605 26.6784 12.2831V14.8963H23.9454C23.4249 14.8963 22.9043 15.2883 22.9043 15.9416C22.9043 16.5949 23.4249 16.7255 23.9454 16.7255Z" fill="#424242"/>
<path d="M126.109 96.1641C124.287 96.1641 122.855 97.6013 122.855 99.5612C122.855 101.39 124.287 102.828 126.109 102.828C127.931 102.828 129.363 101.39 129.363 99.5612C129.363 97.732 127.931 96.1641 126.109 96.1641ZM126.109 100.868C125.328 100.868 124.808 100.214 124.808 99.5612C124.808 98.9079 125.458 98.1239 126.109 98.1239C126.76 98.1239 127.41 98.7772 127.41 99.5612C127.41 100.345 126.89 100.868 126.109 100.868Z" fill="#424242"/>
<path d="M115.957 8.75313H117.128V10.0597C117.128 10.5824 117.519 11.105 118.17 11.105C118.82 11.105 119.211 10.713 119.211 10.0597V8.75313H120.512C121.033 8.75313 121.553 8.36116 121.553 7.70787C121.553 7.05457 121.163 6.6626 120.512 6.6626H119.211V5.48667C119.211 4.96404 118.82 4.44141 118.17 4.44141C117.519 4.44141 117.128 4.96404 117.128 5.48667V6.92392H115.957C115.437 6.92392 114.916 7.31589 114.916 7.96918C114.916 8.62248 115.437 8.75313 115.957 8.75313Z" fill="#424242"/>
<path d="M71.3178 20.2505C73.27 20.2505 74.9618 18.6826 74.9618 16.592C74.9618 14.5015 73.4001 12.9336 71.3178 12.9336C69.2355 12.9336 67.6738 14.5015 67.6738 16.592C67.6738 18.6826 69.3657 20.2505 71.3178 20.2505ZM71.3178 14.8935C72.2288 14.8935 73.0097 15.6774 73.0097 16.592C73.0097 17.5066 72.2288 18.2906 71.3178 18.2906C70.4068 18.2906 69.626 17.5066 69.626 16.592C69.626 15.6774 70.4068 14.8935 71.3178 14.8935Z" fill="#424242"/>
<path d="M17.5695 99.6934H16.2681V98.2562C16.2681 97.7336 15.8777 97.2109 15.2269 97.2109C14.5762 97.2109 14.3159 97.7336 14.3159 98.2562V99.6934H13.1447C12.6241 99.6934 12.1035 100.085 12.1035 100.739C12.1035 101.392 12.4939 101.784 13.1447 101.784H14.3159V103.091C14.3159 103.613 14.7064 104.136 15.3571 104.136C16.0078 104.136 16.3982 103.744 16.3982 103.091V101.784H17.6997C18.2202 101.784 18.7408 101.392 18.7408 100.739C18.7408 100.085 18.0901 99.6934 17.5695 99.6934Z" fill="#424242"/>
<path d="M154.87 52.1309C154.87 52.0002 154.74 51.8696 154.61 51.8696C154.61 51.8696 154.61 51.8696 154.479 51.7389C143.417 42.8541 131.704 35.6679 120.772 30.9642C112.573 27.4364 104.635 25.4766 99.5592 25.4766C92.5315 25.4766 81.3392 30.3109 77.4349 32.0095C73.5306 30.3109 62.3384 25.4766 55.3107 25.4766C50.2351 25.4766 42.1662 27.5671 33.9673 30.9642C22.9051 35.6679 11.3224 42.8541 0.260285 51.7389C0.130143 51.8696 0.130143 52.0002 0 52.1309C0 52.1309 0 52.2615 0 52.3922C0 52.5229 0 52.6535 0 52.9148V53.0455V53.1762C0.650714 54.2214 1.30143 55.136 1.95214 56.1813C7.02771 63.8901 12.1033 71.8603 28.6314 86.6247C46.7212 102.826 75.7431 101.52 77.3048 101.389C77.5651 101.389 78.6062 101.389 80.1679 101.389C88.1066 101.389 110.882 100.083 125.978 86.4941C142.636 71.8603 147.712 63.8901 152.788 56.1813C153.438 55.136 154.089 54.2214 154.74 53.1762C154.74 53.1762 154.74 53.1762 154.74 53.0455V52.9148C154.74 52.7842 154.74 52.6535 154.74 52.5229C154.87 52.3922 154.87 52.2615 154.87 52.1309ZM55.4408 27.4364C62.3384 27.4364 73.7909 32.4015 77.1746 33.9694C77.4349 34.1 77.6952 34.1 77.9555 33.9694C80.2981 32.9241 92.5315 27.4364 99.6893 27.4364C106.847 27.4364 126.499 32.4015 150.575 50.955C148.493 50.563 146.28 50.3017 143.938 49.9097C142.636 49.779 141.465 49.5177 140.164 49.3871L138.732 49.2564C135.999 48.8644 133.396 48.6031 130.924 48.3418C130.533 48.3418 130.013 48.2111 129.622 48.2111C126.238 47.8192 122.855 47.5578 119.601 47.4272C118.17 47.2965 116.738 47.2965 115.437 47.2965C104.114 46.9046 96.5659 47.6885 90.0588 48.4725C85.6339 48.9951 81.8598 49.3871 77.5651 49.3871C73.2704 49.3871 69.4962 48.9951 65.0714 48.4725C58.4341 47.8192 51.016 46.9046 39.6935 47.2965C38.3921 47.2965 36.9605 47.4272 35.529 47.4272C32.2754 47.5578 28.8917 47.8192 25.508 48.2111C25.1175 48.2111 24.597 48.3418 24.2065 48.3418C21.7338 48.6031 19.131 48.8644 16.398 49.2564L14.9664 49.3871C13.7951 49.5177 12.4937 49.779 11.1923 49.9097C8.84971 50.3017 6.63728 50.563 4.555 50.955C28.6314 32.4015 48.1528 27.4364 55.4408 27.4364ZM63.1192 70.6844V70.4231C63.1192 69.9004 62.7288 69.3778 62.0781 69.3778C61.4274 69.3778 61.1671 69.9004 61.1671 70.4231V70.5537C61.1671 71.991 61.1671 73.1669 61.0369 74.2122C46.2007 72.6443 26.419 67.9406 8.06885 54.7441C7.67842 54.4827 7.28799 54.2214 7.15785 54.0908C6.50714 53.5681 5.72628 53.1762 5.07557 52.9148C7.02771 52.6535 9.24013 52.2615 11.4526 52.0002C11.9731 51.8696 12.4937 51.8696 12.8841 51.7389C12.8841 51.7389 12.8841 51.7389 13.0143 51.8696C13.5348 52.3922 13.9253 52.6535 14.4458 52.6535C15.0966 52.6535 15.6171 52.3922 16.1377 52.1309C16.2678 52.3922 16.398 52.5229 16.398 52.6535C16.6583 53.0455 16.9186 53.5681 17.1788 53.9601C18.3501 55.7893 18.7406 56.5733 19.5214 56.5733C20.953 56.5733 23.2955 55.2667 24.8573 54.0908C25.508 55.92 26.8094 58.6638 28.8917 59.1864C31.6247 59.9704 34.2275 59.5784 34.4878 59.5784C35.0084 59.5784 35.7893 59.0558 36.7003 58.4025C36.9605 59.8397 37.6113 60.493 38.5223 61.0157C39.3031 61.4076 45.6801 63.4982 49.5844 63.4982C50.8858 63.4982 51.7968 63.2369 52.5777 62.8449C52.838 64.2821 53.3585 65.9807 54.5298 66.3727C56.8724 67.026 67.8044 69.7698 75.6129 68.9858C76.3938 68.8552 77.0445 68.5939 77.4349 68.0712C77.8254 68.5939 78.4761 68.8552 79.2569 68.9858C87.1956 69.7698 98.1276 67.1566 100.34 66.3727C101.511 65.9807 102.032 64.2821 102.292 62.8449C102.943 63.2369 103.984 63.4982 105.285 63.4982C109.19 63.4982 115.567 61.4076 116.348 61.0157C117.259 60.493 117.909 59.8397 118.17 58.4025C118.95 59.0558 119.861 59.4478 120.382 59.5784C120.642 59.5784 123.245 59.9704 125.978 59.1864C127.93 58.6638 129.232 56.0506 130.013 54.0908C131.574 55.2667 133.917 56.5733 135.348 56.5733C136.129 56.5733 136.52 55.92 137.691 53.9601C137.951 53.4375 138.212 53.0455 138.472 52.6535C138.602 52.5229 138.732 52.2615 138.732 52.1309C139.253 52.3922 139.773 52.6535 140.424 52.6535C140.945 52.6535 141.335 52.3922 141.856 51.8696C141.856 51.8696 141.856 51.8696 141.986 51.7389C142.506 51.8696 143.027 51.8696 143.417 52.0002C145.76 52.3922 147.842 52.6535 149.794 52.9148C149.144 53.1762 148.493 53.5681 147.712 54.0908C147.452 54.2214 147.191 54.4827 146.801 54.7441C126.238 69.5085 103.854 73.6895 88.6272 74.6041C82.3803 74.6041 80.8186 74.6041 79.5172 74.6041C78.8665 74.6041 78.3459 74.6041 77.4349 74.6041C76.5239 74.6041 76.0034 74.6041 75.3526 74.6041C74.1814 74.6041 72.4895 74.6041 66.7632 74.6041C66.6331 74.6041 66.5029 74.6041 66.3728 74.6041C65.3317 74.6041 64.2905 74.4735 63.2494 74.3428C63.1192 73.2976 63.1192 72.1216 63.1192 70.6844ZM17.8296 51.0856C20.1721 50.8243 22.2544 50.563 24.3367 50.3017H24.4668V52.0002C23.2955 52.9148 21.0831 54.2214 19.9118 54.4827C19.6516 54.0908 19.2611 53.4375 18.8707 52.9148C18.6104 52.3922 18.22 51.8696 17.9597 51.4776C17.9597 51.4776 17.8296 51.2163 17.8296 51.0856ZM26.419 52.2615V50.171C29.5424 49.9097 32.5357 49.6484 35.529 49.5177C35.9194 49.5177 36.3098 49.5177 36.5701 49.5177V56.0506C35.7893 56.9653 34.4878 57.7492 34.3577 57.7492C34.2275 57.7492 31.885 58.1412 29.4123 57.4879C28.3711 57.0959 27.1998 54.6134 26.419 52.2615ZM38.6524 56.312V49.2564C39.0428 49.2564 39.3031 49.2564 39.6935 49.2564C44.639 49.1257 48.8035 49.1257 52.5777 49.3871V60.3624C52.5777 60.493 52.1872 61.5383 49.7145 61.5383C46.2007 61.5383 40.2141 59.5784 39.6935 59.3171C39.173 59.0558 38.6524 58.7945 38.6524 56.312ZM54.3997 61.669V49.5177C58.3039 49.779 61.5575 50.171 64.8111 50.4323C68.7154 50.8243 72.4895 51.2163 76.5239 51.3469V65.7194C76.5239 65.7194 76.3938 67.026 75.4828 67.1566C67.8044 67.9406 57.2628 65.3274 55.1805 64.6741C54.9202 64.4128 54.5298 62.8449 54.3997 61.669ZM78.4761 65.7194V52.9148V51.3469C82.5105 51.3469 86.2846 50.8243 90.1889 50.4323C93.3123 50.0403 96.6961 49.779 100.6 49.5177V61.669C100.47 62.9755 100.21 64.4128 99.9496 64.6741C97.6071 65.3274 87.0655 67.9406 79.5172 67.1566C78.6062 67.026 78.4761 65.7194 78.4761 65.7194ZM102.422 60.493V49.3871C106.196 49.2564 110.361 49.1257 115.306 49.2564C115.697 49.2564 115.957 49.2564 116.348 49.2564V56.1813C116.348 58.6638 115.827 58.9251 115.437 59.1864C114.916 59.4478 108.929 61.4076 105.416 61.4076C102.813 61.5383 102.422 60.493 102.422 60.493ZM118.3 55.92V49.3871C118.69 49.3871 119.081 49.3871 119.341 49.3871C122.334 49.5177 125.327 49.779 128.451 50.0404V52.1309C127.8 54.4827 126.499 56.9653 125.327 57.3572C122.855 58.0105 120.512 57.6185 120.512 57.6185C120.382 57.6185 119.081 56.9653 118.3 55.92ZM130.403 50.3017H130.533C132.615 50.563 134.828 50.8243 137.04 51.0856C136.91 51.3469 136.91 51.4776 136.78 51.6083C136.52 52.0002 136.259 52.5229 135.869 53.0455C135.609 53.5681 135.088 54.2214 134.828 54.6134C133.657 54.3521 131.444 53.0455 130.273 52.1309L130.403 50.3017ZM151.226 55.0054C146.28 62.5836 141.205 70.5537 124.937 85.0568C106.977 101.128 77.9555 99.4293 77.6952 99.2986H77.5651C77.3048 99.2986 48.283 101.128 30.3233 85.0568C13.9253 70.5537 8.71956 62.7142 3.77414 55.0054C3.644 54.7441 3.38371 54.4827 3.25357 54.0908C4.03442 54.3521 5.07557 54.8747 6.11671 55.528C6.37699 55.6587 6.63728 55.92 7.02771 56.1813C25.6381 69.6391 45.8102 74.4735 60.9068 76.0414C60.2561 79.3078 58.4341 80.6144 53.0982 80.6144C52.5777 80.6144 52.0571 81.0064 52.0571 81.6597C52.0571 82.313 52.4475 82.705 53.0982 82.705C60.7767 82.705 61.1671 85.0568 61.1671 93.027C61.1671 93.5496 61.5575 94.0723 62.2082 94.0723C62.8589 94.0723 63.2494 93.6803 63.2494 93.027C63.2494 85.0568 63.6398 82.705 71.3182 82.705C71.8388 82.705 72.3594 82.313 72.3594 81.6597C72.3594 81.0064 71.9689 80.6144 71.3182 80.6144C66.3728 80.6144 64.9412 79.3078 64.2905 78.1319C64.0302 77.6093 63.7699 76.956 63.6398 76.3027C64.6809 76.4334 65.5919 76.4334 66.5029 76.564C72.7498 76.564 74.3115 76.564 75.6129 76.564C76.2636 76.564 76.7842 76.564 77.8254 76.564C78.8665 76.564 79.3871 76.564 80.0378 76.564C81.2091 76.564 82.9009 76.564 89.1478 76.564C104.635 75.6494 127.41 71.4683 148.363 56.312C148.753 56.0506 149.013 55.7893 149.274 55.6587C150.315 55.0054 151.226 54.4827 152.137 54.2214C151.486 54.4827 151.356 54.7441 151.226 55.0054ZM62.4685 79.3078C63.1192 80.3531 64.0302 81.1371 65.2015 81.6597C63.7699 82.313 62.7288 83.3583 62.2082 84.6648C61.6877 83.3583 60.6465 82.313 59.2149 81.6597C60.6465 81.0064 61.5575 79.9611 62.2082 78.6546C62.2082 78.9159 62.3384 79.0465 62.4685 79.3078Z" fill="#424242"/>
<path d="M96.3048 16.2012C100.6 16.2012 101.38 16.5932 101.38 21.2969C101.38 21.8195 101.771 22.3421 102.422 22.3421C103.072 22.3421 103.463 21.9502 103.463 21.2969C103.463 16.4625 104.764 16.2012 108.538 16.2012C109.059 16.2012 109.579 15.8092 109.579 15.1559C109.579 14.5026 109.189 14.1106 108.538 14.1106C104.894 14.1106 103.463 13.3267 103.463 8.36167C103.463 7.83904 103.072 7.31641 102.422 7.31641C101.771 7.31641 101.38 7.83904 101.38 8.49233C101.38 13.196 100.469 14.2413 96.3048 14.2413C95.7842 14.2413 95.2637 14.6333 95.2637 15.2866C95.2637 15.9399 95.7842 16.2012 96.3048 16.2012ZM102.422 13.588C102.812 14.1106 103.202 14.6333 103.723 15.0253C103.202 15.2866 102.812 15.6785 102.422 16.3318C102.161 15.8092 101.641 15.4172 101.12 15.1559C101.641 14.6333 102.031 14.2413 102.422 13.588Z" fill="#424242"/>
<path d="M105.677 108.969C103.985 108.969 102.684 110.275 102.684 111.974C102.684 113.672 103.985 114.979 105.677 114.979C107.369 114.979 108.67 113.672 108.67 111.974C108.54 110.275 107.239 108.969 105.677 108.969ZM105.677 112.889C105.156 112.889 104.636 112.497 104.636 111.843C104.636 111.321 105.156 110.798 105.677 110.798C106.197 110.798 106.718 111.19 106.718 111.843C106.588 112.497 106.197 112.889 105.677 112.889Z" fill="#424242"/>
<path d="M45.029 119.031C43.207 119.031 41.7754 120.468 41.7754 122.298C41.7754 124.127 43.207 125.564 45.029 125.564C46.851 125.564 48.2825 124.127 48.2825 122.298C48.1524 120.468 46.7208 119.031 45.029 119.031ZM45.029 123.474C44.3782 123.474 43.7275 122.951 43.7275 122.167C43.7275 121.514 44.2481 120.86 45.029 120.86C45.6797 120.86 46.3304 121.383 46.3304 122.167C46.2002 122.951 45.6797 123.474 45.029 123.474Z" fill="#424242"/>
<path d="M49.7154 5.48765C51.2771 5.48765 52.4484 4.31173 52.4484 2.74383C52.4484 1.17593 51.2771 0 49.7154 0C48.1537 0 46.9824 1.17593 46.9824 2.74383C46.9824 4.31173 48.2839 5.48765 49.7154 5.48765ZM49.7154 1.95988C50.1059 1.95988 50.4963 2.35185 50.4963 2.74383C50.4963 3.1358 50.1059 3.52778 49.7154 3.52778C49.325 3.52778 48.9346 3.1358 48.9346 2.74383C48.9346 2.35185 49.325 1.95988 49.7154 1.95988Z" fill="#424242"/>
<path d="M87.5859 122.688H86.4146V121.381C86.4146 120.859 86.0241 120.336 85.3734 120.336C84.7227 120.336 84.3323 120.728 84.3323 121.381V122.688H83.2911C82.7706 122.688 82.25 123.08 82.25 123.733C82.25 124.386 82.6404 124.778 83.2911 124.778H84.4624V126.085C84.4624 126.608 84.8528 127.13 85.5036 127.13C86.1543 127.13 86.5447 126.738 86.5447 126.085V124.778H87.716C88.2366 124.778 88.7571 124.386 88.7571 123.733C88.7571 123.08 88.1064 122.688 87.5859 122.688Z" fill="#424242"/>
<path d="M67.2844 111.973H66.1131V110.666C66.1131 110.144 65.7226 109.621 65.0719 109.621C64.4212 109.621 64.0308 110.013 64.0308 110.666V111.973H62.8595C62.3389 111.973 61.8184 112.365 61.8184 113.018C61.8184 113.672 62.2088 114.063 62.8595 114.063H64.0308V115.37C64.0308 115.893 64.4212 116.415 65.0719 116.415C65.7226 116.415 66.1131 116.023 66.1131 115.37V114.063H67.2844C67.8049 114.063 68.3255 113.672 68.3255 113.018C68.3255 112.365 67.8049 111.973 67.2844 111.973Z" fill="#424242"/>
<path d="M23.9454 16.7255H26.6784V19.208C26.6784 19.7307 27.0689 20.2533 27.7196 20.2533C28.3703 20.2533 28.7607 19.8613 28.7607 19.208V16.7255H31.4937C32.0143 16.7255 32.5349 16.3336 32.5349 15.6803C32.5349 15.027 32.1444 14.635 31.4937 14.635H28.6306V12.0218C28.6306 11.4992 28.2401 10.9766 27.5894 10.9766C26.9387 10.9766 26.6784 11.7605 26.6784 12.2831V14.8963H23.9454C23.4249 14.8963 22.9043 15.2883 22.9043 15.9416C22.9043 16.5949 23.4249 16.7255 23.9454 16.7255Z" fill="#424242"/>
<path d="M126.109 96.1641C124.287 96.1641 122.855 97.6013 122.855 99.5612C122.855 101.39 124.287 102.828 126.109 102.828C127.931 102.828 129.363 101.39 129.363 99.5612C129.363 97.732 127.931 96.1641 126.109 96.1641ZM126.109 100.868C125.328 100.868 124.808 100.214 124.808 99.5612C124.808 98.9079 125.458 98.1239 126.109 98.1239C126.76 98.1239 127.41 98.7772 127.41 99.5612C127.41 100.345 126.89 100.868 126.109 100.868Z" fill="#424242"/>
<path d="M115.957 8.75313H117.128V10.0597C117.128 10.5824 117.519 11.105 118.17 11.105C118.82 11.105 119.211 10.713 119.211 10.0597V8.75313H120.512C121.033 8.75313 121.553 8.36116 121.553 7.70787C121.553 7.05457 121.163 6.6626 120.512 6.6626H119.211V5.48667C119.211 4.96404 118.82 4.44141 118.17 4.44141C117.519 4.44141 117.128 4.96404 117.128 5.48667V6.92392H115.957C115.437 6.92392 114.916 7.31589 114.916 7.96918C114.916 8.62248 115.437 8.75313 115.957 8.75313Z" fill="#424242"/>
<path d="M71.3178 20.2505C73.27 20.2505 74.9618 18.6826 74.9618 16.592C74.9618 14.5015 73.4001 12.9336 71.3178 12.9336C69.2355 12.9336 67.6738 14.5015 67.6738 16.592C67.6738 18.6826 69.3657 20.2505 71.3178 20.2505ZM71.3178 14.8935C72.2288 14.8935 73.0097 15.6774 73.0097 16.592C73.0097 17.5066 72.2288 18.2906 71.3178 18.2906C70.4068 18.2906 69.626 17.5066 69.626 16.592C69.626 15.6774 70.4068 14.8935 71.3178 14.8935Z" fill="#424242"/>
<path d="M17.5695 99.6934H16.2681V98.2562C16.2681 97.7336 15.8777 97.2109 15.2269 97.2109C14.5762 97.2109 14.3159 97.7336 14.3159 98.2562V99.6934H13.1447C12.6241 99.6934 12.1035 100.085 12.1035 100.739C12.1035 101.392 12.4939 101.784 13.1447 101.784H14.3159V103.091C14.3159 103.613 14.7064 104.136 15.3571 104.136C16.0078 104.136 16.3982 103.744 16.3982 103.091V101.784H17.6997C18.2202 101.784 18.7408 101.392 18.7408 100.739C18.7408 100.085 18.0901 99.6934 17.5695 99.6934Z" fill="#424242"/>
</g>
<defs>
<clipPath id="clip0">
<rect width="155" height="127" fill="white"/>
</clipPath>
</defs>
</svg>
