<svg width="11" height="13" viewBox="0 0 11 13" fill="none" xmlns="http://www.w3.org/2000/svg">
<path d="M5.21484 0.875001C2.81953 0.875001 0.816562 2.35625 0 4.44922L0.864375 4.80078C1.54734 3.05 3.20391 1.8125 5.21484 1.8125C6.73359 1.8125 8.09016 2.55781 8.93578 3.6875H7.08984V4.625H10.3711V1.34375H9.43359V2.79406C8.90849 2.19115 8.26019 1.70787 7.53243 1.37682C6.80466 1.04577 6.01436 0.874649 5.21484 0.875001ZM9.56484 8.19922C8.88234 9.95 7.22578 11.1875 5.21484 11.1875C3.67922 11.1875 2.32875 10.4319 1.47891 9.3125H3.33984V8.375H0.0585938V11.6562H0.996094V10.2059C2.02266 11.3684 3.525 12.125 5.21484 12.125C7.61016 12.125 9.61312 10.6438 10.4297 8.55078L9.56531 8.19922H9.56484Z" fill="black"/>
</svg>
