<svg width="12" height="17" viewBox="0 0 12 17" fill="none" xmlns="http://www.w3.org/2000/svg">
<path d="M11.5 5.66667C11.5 6.36893 11.299 7.30399 10.9369 8.36145C10.5775 9.41101 10.0706 10.5491 9.48528 11.6467C8.89998 12.7443 8.24102 13.7926 7.58111 14.6644C7.02535 15.3986 6.48409 15.9873 6 16.3778C5.51591 15.9873 4.97465 15.3986 4.41889 14.6644C3.75898 13.7926 3.10002 12.7443 2.51472 11.6467C1.92941 10.5491 1.42252 9.41101 1.06311 8.36145C0.700998 7.30399 0.5 6.36893 0.5 5.66667C0.5 2.83974 2.93512 0.5 6 0.5C9.06488 0.5 11.5 2.83974 11.5 5.66667Z" stroke="white"/>
<circle cx="6" cy="6" r="1.5" stroke="white"/>
</svg>
