<svg width="17" height="17" viewBox="0 0 17 17" fill="none" xmlns="http://www.w3.org/2000/svg">
<path d="M16.27 1.30433L16.2706 1.30448C16.4043 1.33515 16.5 1.45422 16.5 1.59408C16.5 9.83407 9.82134 16.5 1.59406 16.5C1.45431 16.5 1.33556 16.4043 1.30432 16.27C1.30432 16.27 1.30431 16.27 1.30431 16.27C1.30429 16.2699 1.30427 16.2698 1.30424 16.2697L0.507535 12.8173C0.507533 12.8173 0.50753 12.8172 0.507527 12.8172C0.47604 12.6803 0.546795 12.5329 0.68459 12.4715L4.40073 10.8789C4.52022 10.8276 4.66113 10.8608 4.74667 10.9652L6.39336 12.9771L6.63995 13.2784L6.99248 13.1132C9.69934 11.8444 11.8721 9.64038 13.1164 6.98942L13.2819 6.63678L12.9804 6.39005L10.9684 4.74321L10.9684 4.7432L10.9657 4.74108C10.8661 4.66067 10.8301 4.51892 10.8822 4.39743L12.475 0.680841C12.4751 0.680604 12.4752 0.680366 12.4753 0.68013C12.5327 0.548866 12.678 0.475621 12.817 0.507497C12.8171 0.507514 12.8172 0.507531 12.8173 0.507549L16.27 1.30433Z" stroke="white"/>
</svg>
