<svg width="50" height="50" viewBox="0 0 50 50" fill="none" xmlns="http://www.w3.org/2000/svg">
<g opacity="0.3">
<path d="M0 44.6429V30.3571C0 15.0649 6.22773 3.98168 18.9284 0.0923961C20.4152 -0.362961 21.875 0.922419 21.875 2.68157V6.4645C21.875 7.58693 21.2668 8.59988 20.3431 8.98124C13.898 11.642 10.1562 16.735 10.1562 25H17.1875C19.7764 25 21.875 27.3984 21.875 30.3571V44.6429C21.875 47.6016 19.7764 50 17.1875 50H4.6875C2.09863 50 0 47.6016 0 44.6429ZM32.8125 50H45.3125C47.9014 50 50 47.6016 50 44.6429V30.3571C50 27.3984 47.9014 25 45.3125 25H38.2812C38.2812 16.735 42.023 11.642 48.4681 8.98124C49.3918 8.59988 50 7.58693 50 6.4645V2.68157C50 0.922419 48.5402 -0.362961 47.0534 0.0923961C34.3527 3.98168 28.125 15.0649 28.125 30.3571V44.6429C28.125 47.6016 30.2236 50 32.8125 50Z" fill="url(#paint0_linear)"/>
</g>
<defs>
<linearGradient id="paint0_linear" x1="0.833333" y1="0.833333" x2="50" y2="50" gradientUnits="userSpaceOnUse">
<stop stop-color="#9CEEE5"/>
<stop offset="0.296875" stop-color="#FEB6C5"/>
<stop offset="0.588542" stop-color="#FDD3B9"/>
<stop offset="1" stop-color="#F5FABD"/>
</linearGradient>
</defs>
</svg>
