<svg width="16" height="16" viewBox="0 0 16 16" fill="none" xmlns="http://www.w3.org/2000/svg">
<path d="M15.9122 0.0943126C15.8208 -0.000195053 15.6799 -0.0265333 15.5606 0.0283122L0.180587 7.08695C0.0569519 7.14397 -0.0152458 7.27442 0.00272615 7.40952C0.0206981 7.54462 0.124502 7.65183 0.258672 7.67414L7.15711 8.83023L7.94571 15.3491C7.96244 15.4848 8.06625 15.5942 8.20104 15.6171C8.2187 15.6202 8.23605 15.6218 8.2534 15.6218C8.3696 15.6218 8.47836 15.5564 8.53104 15.4495L15.9677 0.447555C16.026 0.330117 16.0037 0.18851 15.9122 0.0943126ZM8.43622 14.2451L7.74461 8.52595C7.72788 8.38961 7.62346 8.28023 7.48805 8.25761L1.35527 7.22949L15.0236 0.956657L8.43622 14.2451Z" fill="black"/>
</svg>
