<svg width="30" height="30" viewBox="0 0 30 30" fill="none" xmlns="http://www.w3.org/2000/svg">
<path d="M30 14.9793C30 6.70559 23.2852 0 15 0C6.71484 0 0 6.70559 0 14.9793C0 22.4573 5.48438 28.6538 12.6562 29.7773V19.3093H8.84766V14.9793H12.6562V11.6792C12.6562 7.92558 14.8945 5.8513 18.3223 5.8513C19.9629 5.8513 21.6797 6.14386 21.6797 6.14386V9.83018H19.7871C17.9238 9.83018 17.3438 10.9858 17.3438 12.1707V14.9793H21.5039L20.8389 19.3093H17.3438V29.7773C24.5156 28.6538 30 22.4573 30 14.9793Z" fill="black"/>
<path d="M20.8389 19.3095L21.5039 14.9796H17.3438V12.171C17.3438 10.9861 17.9238 9.83045 19.7871 9.83045H21.6797V6.14413C21.6797 6.14413 19.9629 5.85156 18.3223 5.85156C14.8945 5.85156 12.6562 7.92585 12.6562 11.6795V14.9796H8.84766V19.3095H12.6562V29.7775C13.4209 29.8975 14.2031 29.9589 15 29.9589C15.7969 29.9589 16.5791 29.8975 17.3438 29.7775V19.3095H20.8389Z" fill="white"/>
</svg>
