<svg width="43" height="30" viewBox="0 0 43 30" fill="none" xmlns="http://www.w3.org/2000/svg">
<path d="M41.7752 4.68751C41.2845 2.8424 39.8387 1.38925 38.003 0.896107C34.6756 0 21.3334 0 21.3334 0C21.3334 0 7.99117 0 4.66375 0.896107C2.82805 1.38933 1.38227 2.8424 0.891562 4.68751C0 8.03188 -3.03984e-08 15.0096 -3.03984e-08 15.0096C-3.03984e-08 15.0096 0 21.9873 0.891562 25.3317C1.38227 27.1768 2.82805 28.5694 4.66375 29.0625C7.99117 29.9587 21.3334 29.9586 21.3334 29.9586C21.3334 29.9586 34.6755 29.9587 38.003 29.0625C39.8387 28.5694 41.2845 27.1768 41.7752 25.3317C42.6667 21.9873 42.6667 15.0096 42.6667 15.0096C42.6667 15.0096 42.6667 8.03188 41.7752 4.68751ZM16.9697 21.3448V8.67436L28.1212 15.0098L16.9697 21.3448Z" fill="black"/>
</svg>
