<svg width="30" height="30" viewBox="0 0 30 30" fill="none" xmlns="http://www.w3.org/2000/svg">
<path d="M15.0033 7.29668C10.7468 7.29668 7.31344 10.7253 7.31344 14.976C7.31344 19.2267 10.7468 22.6553 15.0033 22.6553C19.2599 22.6553 22.6933 19.2267 22.6933 14.976C22.6933 10.7253 19.2599 7.29668 15.0033 7.29668ZM15.0033 19.9685C12.2527 19.9685 10.0039 17.7296 10.0039 14.976C10.0039 12.2224 12.246 9.98343 15.0033 9.98343C17.7607 9.98343 20.0028 12.2224 20.0028 14.976C20.0028 17.7296 17.754 19.9685 15.0033 19.9685ZM24.8015 6.98255C24.8015 7.97839 23.9983 8.77372 23.0078 8.77372C22.0106 8.77372 21.2142 7.97171 21.2142 6.98255C21.2142 5.9934 22.0173 5.19138 23.0078 5.19138C23.9983 5.19138 24.8015 5.9934 24.8015 6.98255ZM29.8946 8.80046C29.7808 6.40109 29.232 4.27575 27.4718 2.52468C25.7184 0.773611 23.5901 0.225567 21.1874 0.105265C18.7111 -0.0350881 11.2889 -0.0350881 8.8126 0.105265C6.41662 0.218884 4.28834 0.766928 2.52817 2.518C0.767987 4.26907 0.225878 6.39441 0.10541 8.79377C-0.0351366 11.2667 -0.0351366 18.6786 0.10541 21.1515C0.219186 23.5509 0.767987 25.6762 2.52817 27.4273C4.28834 29.1784 6.40993 29.7264 8.8126 29.8467C11.2889 29.9871 18.7111 29.9871 21.1874 29.8467C23.5901 29.7331 25.7184 29.185 27.4718 27.4273C29.2253 25.6762 29.7741 23.5509 29.8946 21.1515C30.0351 18.6786 30.0351 11.2733 29.8946 8.80046ZM26.6955 23.8048C26.1735 25.1148 25.1629 26.124 23.8444 26.652C21.8701 27.434 17.1852 27.2535 15.0033 27.2535C12.8215 27.2535 8.12995 27.4273 6.1623 26.652C4.85053 26.1307 3.83993 25.1215 3.31121 23.8048C2.52817 21.8332 2.70887 17.1548 2.70887 14.976C2.70887 12.7972 2.53486 8.11206 3.31121 6.14712C3.83324 4.83716 4.84384 3.82796 6.1623 3.29996C8.13664 2.518 12.8215 2.69845 15.0033 2.69845C17.1852 2.69845 21.8767 2.52468 23.8444 3.29996C25.1562 3.82127 26.1668 4.83048 26.6955 6.14712C27.4785 8.11874 27.2978 12.7972 27.2978 14.976C27.2978 17.1548 27.4785 21.8399 26.6955 23.8048Z" fill="black"/>
</svg>
